<svg xmlns="http://www.w3.org/2000/svg" xmlns:xlink="http://www.w3.org/1999/xlink" width="500" zoomAndPan="magnify" viewBox="0 0 375 374.999991" height="500" preserveAspectRatio="xMidYMid meet" version="1.0"><defs><g/><clipPath id="29740752f8"><path d="M 46.828125 206.59375 L 187.621094 206.59375 L 187.621094 233 L 46.828125 233 Z M 46.828125 206.59375 " clip-rule="nonzero"/></clipPath><clipPath id="bbbcd314b8"><path d="M 52.273438 258 L 181.792969 258 L 181.792969 289.289062 L 52.273438 289.289062 Z M 52.273438 258 " clip-rule="nonzero"/></clipPath><clipPath id="20f85a8e3f"><path d="M 46.828125 237.425781 L 187.621094 237.425781 L 187.621094 253.746094 L 46.828125 253.746094 Z M 46.828125 237.425781 " clip-rule="nonzero"/></clipPath><clipPath id="bcea355339"><path d="M 46.828125 193.296875 L 187.621094 193.296875 L 187.621094 200.550781 L 46.828125 200.550781 Z M 46.828125 193.296875 " clip-rule="nonzero"/></clipPath><clipPath id="573fcc64ba"><path d="M 52 71.789062 L 182 71.789062 L 182 188 L 52 188 Z M 52 71.789062 " clip-rule="nonzero"/></clipPath><clipPath id="946af9f4c3"><path d="M 200.890625 135.378906 L 201.640625 135.378906 L 201.640625 285.378906 L 200.890625 285.378906 Z M 200.890625 135.378906 " clip-rule="nonzero"/></clipPath></defs><g clip-path="url(#29740752f8)"><path fill="#2e2d2d" d="M 181.09375 221.707031 C 181.09375 224.222656 179.042969 226.273438 176.523438 226.273438 L 57.921875 226.273438 C 55.402344 226.273438 53.355469 224.222656 53.355469 221.707031 L 53.355469 217.792969 C 53.355469 215.277344 55.402344 213.230469 57.921875 213.230469 L 176.523438 213.230469 C 179.042969 213.230469 181.09375 215.277344 181.09375 217.792969 Z M 176.523438 206.707031 L 57.921875 206.707031 C 51.804688 206.707031 46.828125 211.679688 46.828125 217.792969 L 46.828125 221.707031 C 46.828125 227.816406 51.804688 232.792969 57.921875 232.792969 L 176.523438 232.792969 C 182.644531 232.792969 187.621094 227.816406 187.621094 221.707031 L 187.621094 217.792969 C 187.621094 211.679688 182.644531 206.707031 176.523438 206.707031 " fill-opacity="1" fill-rule="nonzero"/></g><g clip-path="url(#bbbcd314b8)"><path fill="#2e2d2d" d="M 153.5625 282.78125 L 80.449219 282.78125 C 69.679688 282.78125 60.726562 274.847656 59.152344 264.523438 L 174.863281 264.523438 C 173.285156 274.847656 164.335938 282.78125 153.5625 282.78125 Z M 178.375 258.003906 L 55.640625 258.003906 C 53.835938 258.003906 52.375 259.464844 52.375 261.265625 C 52.375 276.722656 64.96875 289.304688 80.449219 289.304688 L 153.5625 289.304688 C 169.046875 289.304688 181.636719 276.722656 181.636719 261.265625 C 181.636719 259.464844 180.175781 258.003906 178.375 258.003906 " fill-opacity="1" fill-rule="nonzero"/></g><g clip-path="url(#20f85a8e3f)"><path fill="#2e2d2d" d="M 184.359375 237.734375 C 179.347656 237.734375 176.84375 241.144531 175.011719 243.628906 C 173.285156 245.976562 172.488281 246.863281 170.929688 246.863281 C 169.371094 246.863281 168.570312 245.976562 166.84375 243.628906 C 165.015625 241.144531 162.507812 237.734375 157.5 237.734375 C 152.492188 237.734375 149.984375 241.144531 148.15625 243.628906 C 146.425781 245.976562 145.628906 246.863281 144.070312 246.863281 C 142.515625 246.863281 141.714844 245.976562 139.988281 243.628906 C 138.160156 241.144531 135.652344 237.734375 130.644531 237.734375 C 125.636719 237.734375 123.128906 241.144531 121.300781 243.628906 C 119.574219 245.976562 118.773438 246.863281 117.21875 246.863281 C 115.660156 246.863281 114.859375 245.976562 113.132812 243.628906 C 111.304688 241.144531 108.800781 237.734375 103.789062 237.734375 C 98.78125 237.734375 96.277344 241.144531 94.445312 243.628906 C 92.722656 245.976562 91.921875 246.863281 90.363281 246.863281 C 88.808594 246.863281 88.007812 245.976562 86.28125 243.628906 C 84.453125 241.144531 81.949219 237.734375 76.941406 237.734375 C 71.929688 237.734375 69.425781 241.144531 67.597656 243.628906 C 65.871094 245.976562 65.074219 246.863281 63.515625 246.863281 C 61.960938 246.863281 61.160156 245.976562 59.433594 243.628906 C 57.605469 241.144531 55.097656 237.734375 50.089844 237.734375 C 48.289062 237.734375 46.828125 239.195312 46.828125 240.996094 C 46.828125 242.796875 48.289062 244.253906 50.089844 244.253906 C 51.648438 244.253906 52.445312 245.144531 54.171875 247.492188 C 56 249.976562 58.507812 253.382812 63.515625 253.382812 C 68.523438 253.382812 71.03125 249.976562 72.859375 247.492188 C 74.585938 245.144531 75.382812 244.253906 76.941406 244.253906 C 78.496094 244.253906 79.296875 245.144531 81.023438 247.492188 C 82.851562 249.976562 85.355469 253.382812 90.363281 253.382812 C 95.375 253.382812 97.878906 249.976562 99.707031 247.492188 C 101.433594 245.144531 102.234375 244.253906 103.789062 244.253906 C 105.347656 244.253906 106.144531 245.144531 107.871094 247.492188 C 109.703125 249.976562 112.207031 253.382812 117.21875 253.382812 C 122.226562 253.382812 124.734375 249.976562 126.5625 247.492188 C 128.285156 245.144531 129.085938 244.253906 130.644531 244.253906 C 132.203125 244.253906 133 245.144531 134.726562 247.492188 C 136.554688 249.976562 139.0625 253.382812 144.070312 253.382812 C 149.078125 253.382812 151.585938 249.976562 153.414062 247.492188 C 155.140625 245.144531 155.941406 244.253906 157.5 244.253906 C 159.054688 244.253906 159.859375 245.144531 161.582031 247.492188 C 163.414062 249.976562 165.917969 253.382812 170.929688 253.382812 C 175.9375 253.382812 178.441406 249.976562 180.273438 247.492188 C 182 245.144531 182.800781 244.253906 184.359375 244.253906 C 186.160156 244.253906 187.621094 242.796875 187.621094 240.996094 C 187.621094 239.195312 186.160156 237.734375 184.359375 237.734375 " fill-opacity="1" fill-rule="nonzero"/></g><g clip-path="url(#bcea355339)"><path fill="#2e2d2d" d="M 50.089844 200.296875 L 184.359375 200.296875 C 186.160156 200.296875 187.621094 198.835938 187.621094 197.035156 C 187.621094 195.238281 186.160156 193.777344 184.359375 193.777344 L 50.089844 193.777344 C 48.289062 193.777344 46.828125 195.238281 46.828125 197.035156 C 46.828125 198.835938 48.289062 200.296875 50.089844 200.296875 " fill-opacity="1" fill-rule="nonzero"/></g><g clip-path="url(#573fcc64ba)"><path fill="#2e2d2d" d="M 117.007812 130.960938 C 166.863281 130.960938 174.195312 165.753906 175.019531 180.84375 L 58.996094 180.84375 C 59.816406 165.753906 67.148438 130.960938 117.007812 130.960938 Z M 120.269531 83.667969 C 120.703125 82.441406 122.761719 78.308594 130.71875 78.308594 C 136.128906 78.308594 138.785156 80.824219 142.148438 84.007812 C 145.703125 87.371094 149.730469 91.1875 157.136719 91.1875 C 162.277344 91.1875 166.039062 90.152344 168.746094 88.847656 L 168.746094 107.910156 C 167.5625 109.4375 163.628906 113.519531 155.3125 113.519531 C 150.269531 113.519531 147.734375 111.601562 144.527344 109.175781 C 140.921875 106.449219 136.839844 103.359375 129.234375 103.359375 C 125.363281 103.359375 122.453125 103.972656 120.269531 104.867188 Z M 55.640625 187.363281 L 178.375 187.363281 C 180.175781 187.363281 181.636719 185.90625 181.636719 184.105469 C 181.636719 168.40625 176.730469 154.140625 167.816406 143.9375 C 157.078125 131.636719 141.089844 125.105469 120.269531 124.492188 L 120.269531 112.699219 C 120.621094 112.144531 122.476562 109.878906 129.234375 109.878906 C 134.644531 109.878906 137.398438 111.960938 140.582031 114.371094 C 144.097656 117.027344 148.074219 120.039062 155.3125 120.039062 C 169.492188 120.039062 174.664062 110.847656 174.875 110.460938 C 175.136719 109.980469 175.273438 109.445312 175.273438 108.902344 L 175.273438 82.058594 C 175.273438 80.574219 174.265625 79.277344 172.828125 78.902344 C 171.386719 78.527344 169.878906 79.175781 169.152344 80.476562 C 169.128906 80.515625 166.40625 84.667969 157.136719 84.667969 C 152.335938 84.667969 149.820312 82.285156 146.640625 79.277344 C 143.117188 75.9375 138.730469 71.789062 130.71875 71.789062 C 116.34375 71.789062 113.914062 82.058594 113.816406 82.5 C 113.769531 82.726562 113.742188 82.964844 113.742188 83.199219 L 113.742188 112.097656 C 113.742188 112.144531 113.742188 112.1875 113.742188 112.226562 L 113.742188 124.492188 C 92.921875 125.105469 76.933594 131.636719 66.195312 143.9375 C 57.28125 154.140625 52.375 168.40625 52.375 184.105469 C 52.375 185.90625 53.835938 187.363281 55.640625 187.363281 " fill-opacity="1" fill-rule="nonzero"/></g><path fill="#2e2d2d" d="M 77.511719 155.902344 C 75.828125 155.902344 74.464844 157.265625 74.464844 158.945312 C 74.464844 160.625 75.828125 161.988281 77.511719 161.988281 C 79.191406 161.988281 80.554688 160.625 80.554688 158.945312 C 80.554688 157.265625 79.191406 155.902344 77.511719 155.902344 " fill-opacity="1" fill-rule="nonzero"/><path fill="#2e2d2d" d="M 119.179688 163.5625 C 117.496094 163.5625 116.132812 164.925781 116.132812 166.609375 C 116.132812 168.289062 117.496094 169.652344 119.179688 169.652344 C 120.863281 169.652344 122.226562 168.289062 122.226562 166.609375 C 122.226562 164.925781 120.863281 163.5625 119.179688 163.5625 " fill-opacity="1" fill-rule="nonzero"/><path fill="#2e2d2d" d="M 138.414062 158.945312 C 136.730469 158.945312 135.367188 160.308594 135.367188 161.988281 C 135.367188 163.671875 136.730469 165.03125 138.414062 165.03125 C 140.09375 165.03125 141.460938 163.671875 141.460938 161.988281 C 141.460938 160.308594 140.09375 158.945312 138.414062 158.945312 " fill-opacity="1" fill-rule="nonzero"/><path fill="#2e2d2d" d="M 120.269531 149.816406 C 118.589844 149.816406 117.222656 151.179688 117.222656 152.859375 C 117.222656 154.542969 118.589844 155.902344 120.269531 155.902344 C 121.953125 155.902344 123.316406 154.542969 123.316406 152.859375 C 123.316406 151.179688 121.953125 149.816406 120.269531 149.816406 " fill-opacity="1" fill-rule="nonzero"/><path fill="#2e2d2d" d="M 152.585938 148.457031 C 150.90625 148.457031 149.539062 149.820312 149.539062 151.503906 C 149.539062 153.183594 150.90625 154.546875 152.585938 154.546875 C 154.269531 154.546875 155.632812 153.183594 155.632812 151.503906 C 155.632812 149.820312 154.269531 148.457031 152.585938 148.457031 " fill-opacity="1" fill-rule="nonzero"/><path fill="#2e2d2d" d="M 132.566406 139.328125 C 130.882812 139.328125 129.519531 140.691406 129.519531 142.375 C 129.519531 144.054688 130.882812 145.417969 132.566406 145.417969 C 134.25 145.417969 135.613281 144.054688 135.613281 142.375 C 135.613281 140.691406 134.25 139.328125 132.566406 139.328125 " fill-opacity="1" fill-rule="nonzero"/><path fill="#2e2d2d" d="M 97.015625 161.988281 C 95.332031 161.988281 93.96875 163.351562 93.96875 165.03125 C 93.96875 166.710938 95.332031 168.074219 97.015625 168.074219 C 98.699219 168.074219 100.0625 166.710938 100.0625 165.03125 C 100.0625 163.351562 98.699219 161.988281 97.015625 161.988281 " fill-opacity="1" fill-rule="nonzero"/><path fill="#2e2d2d" d="M 160.695312 163.457031 C 159.015625 163.457031 157.648438 164.816406 157.648438 166.5 C 157.648438 168.179688 159.015625 169.542969 160.695312 169.542969 C 162.378906 169.542969 163.746094 168.179688 163.746094 166.5 C 163.746094 164.816406 162.378906 163.457031 160.695312 163.457031 " fill-opacity="1" fill-rule="nonzero"/><path fill="#2e2d2d" d="M 96.953125 148.457031 C 96.953125 146.78125 95.585938 145.417969 93.902344 145.417969 C 92.222656 145.417969 90.859375 146.78125 90.859375 148.457031 C 90.859375 150.140625 92.222656 151.503906 93.902344 151.503906 C 95.585938 151.503906 96.953125 150.140625 96.953125 148.457031 " fill-opacity="1" fill-rule="nonzero"/><path fill="#2e2d2d" d="M 110.585938 136.070312 C 108.90625 136.070312 107.539062 137.433594 107.539062 139.113281 C 107.539062 140.792969 108.90625 142.15625 110.585938 142.15625 C 112.269531 142.15625 113.632812 140.792969 113.632812 139.113281 C 113.632812 137.433594 112.269531 136.070312 110.585938 136.070312 " fill-opacity="1" fill-rule="nonzero"/><g clip-path="url(#946af9f4c3)"><path fill="#231f20" d="M 201.265625 285.378906 C 201.066406 285.378906 200.90625 285.179688 200.90625 284.933594 L 200.90625 135.828125 C 200.90625 135.578125 201.066406 135.378906 201.265625 135.378906 C 201.464844 135.378906 201.625 135.578125 201.625 135.828125 L 201.625 284.933594 C 201.625 285.179688 201.464844 285.378906 201.265625 285.378906 Z M 201.265625 285.378906 " fill-opacity="1" fill-rule="nonzero"/><path fill="#000000" d="M 275.890625 135.378906 L 275.890625 210.378906 L 125.890625 210.378906 L 125.890625 135.378906 Z M 200.890625 210.378906 L 201.828125 210.378906 L 201.828125 285.378906 L 126.828125 285.378906 L 126.828125 211.316406 L 276.828125 211.316406 L 276.828125 360.378906 L 200.890625 360.378906 Z M 126.828125 136.316406 L 126.828125 135.378906 L 201.828125 135.378906 L 201.828125 210.378906 L 200.890625 210.378906 L 200.890625 60.378906 L 276.828125 60.378906 L 276.828125 136.316406 Z M 126.828125 136.316406 " fill-opacity="1" fill-rule="nonzero"/></g><g fill="#c8102e" fill-opacity="1"><g transform="translate(252.974064, 256.598069)"><g><path d="M -32 -20 C -32 -28.84375 -25.15625 -35.09375 -17 -35.09375 C -9 -35.09375 -2.046875 -28.703125 -2.046875 -20 C -2.046875 -11.65625 -8.34375 -4.90625 -17.046875 -4.90625 C -25.25 -4.90625 -32 -11.25 -32 -20 Z M 0.453125 -20 C 0.453125 -30.59375 -7.796875 -38.046875 -17.046875 -38.046875 C -26.65625 -38.046875 -34.546875 -30.5 -34.546875 -20 C -34.546875 -9.15625 -26.546875 -1.90625 -17.046875 -1.90625 C -6.796875 -1.90625 0.453125 -10.296875 0.453125 -20 Z M 0.453125 -20 "/></g></g></g><g fill="#c8102e" fill-opacity="1"><g transform="translate(252.974064, 216.654254)"><g><path d="M 0.34375 -18.15625 C 1.703125 -19.703125 3.296875 -22 4.65625 -24.796875 C 5.90625 -27.40625 6.796875 -30.40625 7.15625 -33.65625 L 3.703125 -36.65625 L 3.203125 -36.046875 C 4 -35.046875 4.453125 -33.90625 4.453125 -32.75 C 4.453125 -29.90625 2.953125 -25.796875 0.34375 -22 C -0.59375 -31.5 -8.40625 -38.046875 -17.046875 -38.046875 C -26.65625 -38.046875 -34.546875 -30.5 -34.546875 -20 C -34.546875 -9.15625 -26.546875 -1.90625 -17.046875 -1.90625 C -7.453125 -1.90625 -0.5 -9.25 0.34375 -18.15625 Z M -32 -20 C -32 -28.84375 -25.15625 -35.09375 -17 -35.09375 C -9 -35.09375 -2.046875 -28.703125 -2.046875 -20 C -2.046875 -11.65625 -8.34375 -4.90625 -17.046875 -4.90625 C -25.25 -4.90625 -32 -11.25 -32 -20 Z M -32 -20 "/></g></g></g><g fill="#dd0098" fill-opacity="1"><g transform="translate(252.974064, 176.652761)"><g/></g></g><g fill="#000000" fill-opacity="1"><g transform="translate(316.72406, 266.266037)"><g><path d="M -28.640625 -3.359375 L 0 -3.359375 L 0 -11.375 C 0 -18.234375 -3.1875 -21.375 -7.640625 -21.375 C -11.46875 -21.375 -14.03125 -18.984375 -14.875 -14.734375 C -16.546875 -17.765625 -18.640625 -18.859375 -21.25 -18.859375 C -23.3125 -18.859375 -26.375 -17.890625 -27.765625 -14.578125 C -28.390625 -13.109375 -28.640625 -11.375 -28.640625 -8.6875 Z M -15.375 -5.59375 L -26.75 -5.59375 L -26.75 -7.765625 C -26.75 -9.953125 -26.59375 -12.21875 -25.828125 -13.78125 C -24.984375 -15.5 -23.1875 -16.46875 -21.078125 -16.46875 C -17.46875 -16.46875 -15.375 -14.234375 -15.375 -8.5625 Z M -1.84375 -5.59375 L -13.53125 -5.59375 L -13.53125 -9.53125 C -13.53125 -11.96875 -13.390625 -13.78125 -12.890625 -15.203125 C -12.1875 -17.140625 -10.5 -18.9375 -7.6875 -18.9375 C -3.859375 -18.9375 -1.84375 -16.34375 -1.84375 -10.75 Z M -1.84375 -5.59375 "/></g></g></g><g fill="#000000" fill-opacity="1"><g transform="translate(316.72406, 243.964044)"><g><path d="M -7.890625 -2.4375 C -5.171875 -2.4375 -3.3125 -2.9375 -1.890625 -4.109375 C -0.34375 -5.375 0.375 -7.5625 0.375 -9.328125 C 0.375 -11.84375 -0.75 -13.9375 -3.109375 -15.75 L 0 -15.75 L 0 -17.765625 L -18.859375 -17.765625 L -18.859375 -15.75 L -5.671875 -15.75 C -5.203125 -15.546875 -4.40625 -15.125 -4.03125 -14.875 C -2.3125 -13.65625 -1.390625 -11.46875 -1.390625 -9.53125 C -1.390625 -7.4375 -2.390625 -5.75 -4.109375 -5 C -5.078125 -4.578125 -6.296875 -4.453125 -7.890625 -4.453125 L -18.859375 -4.453125 L -18.859375 -2.4375 Z M -7.890625 -2.4375 "/></g></g></g><g fill="#000000" fill-opacity="1"><g transform="translate(316.72406, 223.384044)"><g><path d="M -19.234375 -11.375 C -19.234375 -9.28125 -17.46875 -7.015625 -13.90625 -4.65625 L -18.859375 -4.65625 L -18.859375 -2.640625 L 0 -2.640625 L 0 -4.65625 L -11.84375 -4.65625 C -15.40625 -6.84375 -17.171875 -8.953125 -17.171875 -10.75 C -17.171875 -11.46875 -16.921875 -12.46875 -15.125 -14.484375 L -17.015625 -15.671875 C -18.5625 -13.859375 -19.234375 -12.71875 -19.234375 -11.375 Z M -19.234375 -11.375 "/></g></g><g transform="translate(316.72406, 207.718045)"><g><path d="M -18.859375 -10.125 C -18.859375 -8.359375 -18.78125 -7.9375 -18.640625 -7.265625 C -18.390625 -5.921875 -17.8125 -4.375 -16.625 -3.3125 C -15.28125 -2.09375 -13.53125 -1.640625 -12.046875 -1.640625 C -9.234375 -1.640625 -7.0625 -2.984375 -5.84375 -6.546875 C -5.421875 -5.375 -5.171875 -4.65625 -4.828125 -4.109375 C -4.109375 -2.984375 -3.4375 -2.765625 -2.734375 -2.765625 C -1.390625 -2.765625 -0.46875 -3.984375 0 -5.84375 C 0.546875 -2.1875 2.4375 -0.34375 4.578125 -0.34375 C 6.890625 -0.34375 9.65625 -2.265625 9.65625 -8.609375 C 9.65625 -13.9375 7.609375 -17.046875 4.15625 -17.046875 C 2.3125 -17.046875 0.75 -16 -0.046875 -14.28125 C -0.84375 -12.59375 -0.84375 -10.625 -0.875 -9.03125 C -0.96875 -5.921875 -1.640625 -4.65625 -2.859375 -4.65625 C -3.859375 -4.65625 -4.53125 -5.5 -5 -7.3125 C -5.296875 -8.40625 -5.59375 -9.40625 -5.84375 -10.328125 C -6.671875 -13.3125 -8.90625 -15.40625 -12.09375 -15.40625 C -13.9375 -15.40625 -15.546875 -14.609375 -17.171875 -12.8125 L -17.171875 -17.09375 L -18.859375 -17.09375 Z M -12.1875 -3.40625 C -14.90625 -3.40625 -17.171875 -5.625 -17.171875 -8.40625 C -17.171875 -11.171875 -14.90625 -13.4375 -12.1875 -13.4375 C -9.453125 -13.4375 -7.140625 -11.21875 -7.140625 -8.40625 C -7.140625 -5.671875 -9.359375 -3.40625 -12.1875 -3.40625 Z M 4.53125 -2.21875 C 3.15625 -2.21875 1.8125 -3.1875 1.21875 -6.09375 C 1.046875 -6.890625 1.015625 -7.859375 1.015625 -8.984375 C 1.015625 -10.15625 1.046875 -11.09375 1.21875 -11.890625 C 1.71875 -14.453125 2.984375 -15.15625 4.328125 -15.15625 C 6.390625 -15.15625 7.984375 -12.859375 7.984375 -8.78125 C 7.984375 -4.53125 6.765625 -2.21875 4.53125 -2.21875 Z M 4.53125 -2.21875 "/></g></g></g><g fill="#000000" fill-opacity="1"><g transform="translate(316.72406, 190.204042)"><g><path d="M -19.234375 -10.15625 C -19.234375 -5.046875 -15 -1.515625 -9.65625 -1.515625 C -4.40625 -1.515625 0.375 -4.90625 0.375 -10.921875 C 0.375 -13.5625 -0.421875 -16 -2.140625 -18.1875 L -4.40625 -18.1875 C -2.515625 -16.046875 -1.515625 -13.734375 -1.515625 -11.171875 C -1.515625 -7.515625 -4.15625 -3.78125 -9.53125 -3.734375 C -9.703125 -3.734375 -9.953125 -3.734375 -10.15625 -3.734375 L -10.15625 -18.515625 C -15.75 -18.515625 -19.234375 -14.875 -19.234375 -10.15625 Z M -11.765625 -3.953125 C -15.203125 -4.53125 -17.4375 -7.1875 -17.4375 -10.203125 C -17.4375 -12.984375 -15.578125 -15.453125 -11.765625 -16.125 Z M -11.765625 -3.953125 "/></g></g></g><g fill="#000000" fill-opacity="1"><g transform="translate(316.72406, 170.170051)"><g><path d="M -19.234375 -11.375 C -19.234375 -9.28125 -17.46875 -7.015625 -13.90625 -4.65625 L -18.859375 -4.65625 L -18.859375 -2.640625 L 0 -2.640625 L 0 -4.65625 L -11.84375 -4.65625 C -15.40625 -6.84375 -17.171875 -8.953125 -17.171875 -10.75 C -17.171875 -11.46875 -16.921875 -12.46875 -15.125 -14.484375 L -17.015625 -15.671875 C -18.5625 -13.859375 -19.234375 -12.71875 -19.234375 -11.375 Z M -19.234375 -11.375 "/></g></g></g></svg>